
        <svg xmlns="http://www.w3.org/2000/svg" xmlns:xlink="http://www.w3.org/1999/xlink" version="1.1" width="3166.6666666666665" 
        height="1783.3333333333335" viewBox="0 0 3166.6666666666665 1783.3333333333335">
			<rect fill="#000000" width="3166.6666666666665" height="1783.3333333333335"/>
			<g transform="scale(8.333333333333334) translate(10, 10)">
				<defs id="SvgjsDefs1122"></defs><g id="SvgjsG1123" featureKey="rootContainer" transform="matrix(1,0,0,1,0,0)" fill="#ffffff"><path xmlns="http://www.w3.org/2000/svg" fill-rule="evenodd" d=" M0,0 H360 V194 H0,0 z M2,2 H358 V192 H2,2 z M6,6 H354 V188 H6 z M8,8 H352 V186 H6,8 z "></path></g><g id="SvgjsG1124" featureKey="nameFeature-0" transform="matrix(1.189169414223433,0,0,1.189169414223433,45.52872244682053,34.25540063010201)" fill="#ffffff"><path d="M16.28 38.52 l2.92 0 l-6.36 -15.88 l5.4 -7.52 l-2.08 0 l-8.68 11.68 l0 -11.68 l-2.24 0 l0 23.4 l2.24 0 l0 -8.4 l4.08 -5.52 z M20.56 13.600000000000001 c0.28 0 0.44 0.32 0.28 0.56 l-6.28 8.68 l6.64 16.72 c0.08 0.2 -0.04 0.44 -0.32 0.44 l-5.4 0 c-0.12 0 -0.24 -0.08 -0.28 -0.24 l-4.16 -11.96 l-2.04 2.8 l0 9.04 c0 0.2 -0.16 0.36 -0.36 0.36 l-4.56 0 c-0.2 0 -0.32 -0.16 -0.32 -0.36 l0 -25.68 c0 -0.2 0.12 -0.36 0.32 -0.36 l4.56 0 c0.2 0 0.36 0.16 0.36 0.36 l0 8.28 l6.28 -8.48 c0.12 -0.16 0.16 -0.16 0.32 -0.16 l4.96 0 z M30.720000000000002 38.52 l0 -23.4 l-2.24 0 l0 23.4 l2.24 0 z M27.32 40 c-0.2 0 -0.32 -0.16 -0.32 -0.36 l0 -25.68 c0 -0.2 0.12 -0.36 0.32 -0.36 l4.56 0 c0.2 0 0.36 0.16 0.36 0.36 l0 25.68 c0 0.2 -0.16 0.36 -0.36 0.36 l-4.56 0 z M54.32000000000001 38.52 l0 -23.4 l-2.28 0 l0 18.84 l-8.16 -18.84 l-2.8 0 l0 23.4 l2.24 0 l0 -18.92 l8.4 18.92 l2.6 0 z M50.52 13.96 c0 -0.2 0.16 -0.36 0.36 -0.36 l4.6 0 c0.2 0 0.36 0.16 0.36 0.36 l0 25.68 c0 0.2 -0.16 0.36 -0.36 0.36 l-4.44 0 c-0.16 0 -0.32 -0.08 -0.36 -0.2 l-5.84 -13.16 l0 13 c0 0.2 -0.16 0.36 -0.36 0.36 l-4.56 0 c-0.2 0 -0.32 -0.16 -0.32 -0.36 l0 -25.68 c0 -0.2 0.12 -0.36 0.32 -0.36 l4.72 0 c0.16 0 0.24 0.12 0.28 0.2 l5.6 12.92 l0 -12.76 z M77.28 21.2 l2.36 0 c-0.16 -4.68 -2.84 -6.44 -7.6 -6.44 c-4.6 0 -7.68 1.6 -7.68 6.76 l0 10.52 c0 4.88 2.84 6.88 7.68 6.88 c1.36 0 2.56 -0.16 3.52 -0.4 c0.92 -0.32 1.68 -0.72 2.28 -1.2 c1.2 -1.12 1.8 -2.8 1.8 -5.28 l0 -5.12 l-6.84 0 l0 2 l4.56 0 l0 1.84 c0 3.36 -1.72 5.76 -5.12 5.76 l-0.48 0 c-3.2 0 -5.08 -2.16 -5.08 -5.76 l0 -7.92 c0 -3.08 1.6 -5.72 5.08 -5.72 l0.48 0 c2.56 0 4.72 1.04 5.04 4.08 z M75.84 30.4 l-4.2 0 c-0.2 0 -0.36 -0.16 -0.36 -0.36 l0 -4.28 c0 -0.2 0.16 -0.36 0.36 -0.36 l9.16 0 c0.2 0 0.36 0.16 0.36 0.36 l0 6.28 c0 5.88 -3.16 8.36 -9.12 8.36 c-5.56 0 -9.2 -2.2 -9.2 -8.36 l0 -10.52 c0 -5.8 3.24 -8.28 9.2 -8.28 c5.6 0 9.12 2.16 9.12 8.28 l0 0.84 c0 0.2 -0.16 0.36 -0.36 0.36 l-4.6 0 c-0.2 0 -0.36 -0.16 -0.36 -0.36 l0 -0.52 c0 -2.44 -1.56 -3.24 -3.6 -3.24 l-0.48 0 c-1.32 0 -2.2 0.36 -2.8 1.16 c-0.56 0.76 -0.76 1.76 -0.76 3.08 l0 7.92 c0 3.48 1.88 4.24 3.56 4.24 l0.48 0 c2.44 0 3.6 -1.68 3.6 -4.24 l0 -0.36 z M106.64000000000003 38.52 l0 -23.4 l-2.24 0 l0 23.4 l2.24 0 z M103.24000000000002 40 c-0.2 0 -0.32 -0.16 -0.32 -0.36 l0 -25.68 c0 -0.2 0.12 -0.36 0.32 -0.36 l4.56 0 c0.2 0 0.36 0.16 0.36 0.36 l0 25.68 c0 0.2 -0.16 0.36 -0.36 0.36 l-4.56 0 z M126.52000000000002 38.24 c2.24 -1.08 3.48 -3.24 3.48 -6.6 c0 -3.2 -3.4 -5.2 -6.16 -6.44 c-1.04 -0.64 -2.32 -0.88 -3.72 -1.8 c-1.32 -0.84 -2 -1.88 -2 -3.08 s0.68 -2.28 1.92 -2.8 c1 -0.48 2.08 -0.52 2.36 -0.52 c1.32 0 3.12 0.44 4.72 2.56 l1.68 -1.16 c-1.24 -2.4 -3.2 -3.64 -5.84 -3.64 c-3.44 0 -7.44 2 -7.44 6 c0 3.6 3.6 5.6 6.68 6.8 c2.04 0.8 5 2.2 5 4.88 c0 2.36 -1.96 4.12 -4.4 4.12 c-2 0 -3.64 -1.2 -4.76 -2.84 l-1.92 1.6 c1.24 2.48 4.28 3.6 6.88 3.6 c1.36 0 2.56 -0.2 3.52 -0.68 z M124.52000000000002 23.8 c3.04 1.44 7 3.72 7 7.84 c0 1.2 -0.2 3.52 -1.52 5.48 c-1.48 2.2 -3.8 3.28 -7 3.28 c-3.4 0 -7.36 -1.64 -8.6 -5.36 c-0.04 -0.12 0 -0.24 0.12 -0.32 l3.68 -3.16 c0.16 -0.12 0.4 -0.12 0.52 0.08 c0.08 0.2 0.24 0.52 0.44 0.92 c0.6 1.24 2.04 2.48 3.64 2.48 c1.24 0 2.92 -0.68 2.92 -2.6 c0 -1.84 -2.52 -2.88 -4.08 -3.48 c-1.8 -0.72 -3.64 -1.64 -5.2 -3 c-1.64 -1.52 -2.44 -3.2 -2.44 -5.2 c0 -5 4.6 -7.52 8.96 -7.52 c3.44 0 6 1.8 7.68 5.36 c0.08 0.16 0 0.36 -0.12 0.44 l-3.56 2.48 c-0.16 0.08 -0.24 0.08 -0.4 -0.12 c-1.36 -1.96 -2.56 -2.88 -4.16 -2.88 c-0.84 0 -2.8 0.32 -2.8 1.8 c0 1.8 3.32 2.72 4.92 3.48 z M150.24 38.52 l0 -2.08 l-9 0 l0 -21.32 l-2.24 0 l0 23.4 l11.24 0 z M142.40000000000003 13.600000000000001 c0.2 0 0.36 0.16 0.36 0.36 l0 21 l8.64 0 c0.2 0 0.36 0.16 0.36 0.36 l0 4.32 c0 0.2 -0.16 0.36 -0.36 0.36 l-13.56 0 c-0.2 0 -0.32 -0.16 -0.32 -0.36 l0 -25.68 c0 -0.2 0.12 -0.36 0.32 -0.36 l4.56 0 z M170.8 38.52 l2.16 0 l-6.28 -23.4 l-3.12 0 l-6.28 23.4 l2.2 0 l1.56 -5.88 l8.16 0 z M165.04000000000002 17.44 l3.76 13.28 l-7.24 0 z M162.36 13.84 c0.04 -0.12 0.12 -0.24 0.28 -0.24 l4.96 0 c0.16 0 0.24 0.12 0.28 0.24 l6.92 25.72 c0.04 0.24 -0.12 0.44 -0.36 0.44 l-4.56 0 c-0.12 0 -0.24 -0.08 -0.28 -0.24 l-1.56 -5.6 l-5.84 0 l-1.52 5.6 c-0.04 0.16 -0.12 0.24 -0.28 0.24 l-4.6 0 c-0.24 0 -0.4 -0.2 -0.36 -0.44 z M163.48000000000002 29.2 l3.32 0 l-1.72 -6.04 z M195.12 38.52 l0 -23.4 l-2.28 0 l0 18.84 l-8.16 -18.84 l-2.8 0 l0 23.4 l2.24 0 l0 -18.92 l8.4 18.92 l2.6 0 z M191.32000000000002 13.96 c0 -0.2 0.16 -0.36 0.36 -0.36 l4.6 0 c0.2 0 0.36 0.16 0.36 0.36 l0 25.68 c0 0.2 -0.16 0.36 -0.36 0.36 l-4.44 0 c-0.16 0 -0.32 -0.08 -0.36 -0.2 l-5.84 -13.16 l0 13 c0 0.2 -0.16 0.36 -0.36 0.36 l-4.56 0 c-0.2 0 -0.32 -0.16 -0.32 -0.36 l0 -25.68 c0 -0.2 0.12 -0.36 0.32 -0.36 l4.72 0 c0.16 0 0.24 0.12 0.28 0.2 l5.6 12.92 l0 -12.76 z M220.88 32.12 l0 -10.6 c0 -4.12 -2.08 -6.4 -6.4 -6.4 l-8.84 0 l0 23.4 l8.84 0 c3.8 0 6.4 -2.4 6.4 -6.4 z M213.04000000000002 17.12 c3.56 0 5.6 1.88 5.6 5.6 l0 8.2 c0 3.32 -1.96 5.6 -5.6 5.6 l-5.08 0 l0 -19.4 l5.08 0 z M214.48000000000002 13.600000000000001 c2.72 0 4.76 0.76 6.12 2.24 c1.2 1.32 1.8 3.28 1.8 5.68 l0 10.6 c0 4.84 -2.8 7.88 -7.92 7.88 l-10 0 c-0.2 0 -0.32 -0.16 -0.32 -0.36 l0 -25.68 c0 -0.2 0.12 -0.36 0.32 -0.36 l10 0 z M217.16 30.92 l0 -8.2 c0 -2.52 -1.32 -4.12 -4.12 -4.12 l-3.6 0 l0 16.4 l3.6 0 c2.4 0 4.12 -1.56 4.12 -4.08 z"></path></g><g id="SvgjsG1125" featureKey="nameFeature-1" transform="matrix(0.8613835248955761,0,0,0.8613835248955761,46.76119672238841,80.59528232753762)" fill="#ffffff"><path d="M24.68 38.52 l0 -23.4 l-3.4 0 l-6.48 20 l-6 -20 l-3.56 0 l0 23.4 l2.12 0 l0 -22.2 c0 -0.16 0.08 -0.28 0.28 -0.28 l0.24 0 c0.16 0 0.28 0.12 0.28 0.2 l6.04 22.28 l1.4 0 l6.56 -22.28 c0.04 -0.12 0.12 -0.2 0.24 -0.2 c0.16 0 0.28 0.12 0.28 0.28 l0 22.2 l2 0 z M25.84 13.600000000000001 c0.2 0 0.36 0.16 0.36 0.36 l0 25.68 c0 0.2 -0.16 0.36 -0.36 0.36 l-4.36 0 c-0.12 0 -0.32 -0.16 -0.32 -0.36 l0 -14.8 l-4.4 14.92 c-0.08 0.16 -0.16 0.24 -0.32 0.24 l-3.16 0 c-0.12 0 -0.28 -0.08 -0.32 -0.24 l-4.12 -15.2 l0 15.08 c0 0.2 -0.16 0.36 -0.36 0.36 l-4.44 0 c-0.16 0 -0.28 -0.16 -0.28 -0.36 l0 -25.68 c0 -0.2 0.12 -0.36 0.28 -0.36 l5.6 0 c0.16 0 0.32 0.12 0.36 0.24 l4.84 16.2 l5.32 -16.2 c0 -0.12 0.12 -0.24 0.28 -0.24 l5.4 0 z M37.52 25.560000000000002 l0 -8.44 l9 0 l0 -2 l-11.32 0 l0 23.4 l11.32 0 l0 -2 l-9 0 l0 -8.92 l7.04 0 l0 -2.04 l-7.04 0 z M34.04 40 c-0.2 0 -0.32 -0.16 -0.32 -0.36 l0 -25.68 c0 -0.2 0.12 -0.36 0.32 -0.36 l13.6 0 c0.2 0 0.36 0.16 0.36 0.36 l0 4.28 c0 0.2 -0.16 0.36 -0.36 0.36 l-8.64 0 l0 5.44 l6.72 0 c0.2 0 0.32 0.16 0.32 0.36 l0 4.36 c0 0.2 -0.12 0.36 -0.32 0.36 l-6.72 0 l0 5.88 l8.64 0 c0.2 0 0.36 0.16 0.36 0.36 l0 4.28 c0 0.2 -0.16 0.36 -0.36 0.36 l-13.6 0 z M68.2 38.52 l2.16 0 l-6.28 -23.4 l-3.12 0 l-6.28 23.4 l2.2 0 l1.56 -5.88 l8.16 0 z M62.44 17.44 l3.76 13.28 l-7.24 0 z M59.76 13.84 c0.04 -0.12 0.12 -0.24 0.28 -0.24 l4.96 0 c0.16 0 0.24 0.12 0.28 0.24 l6.92 25.72 c0.04 0.24 -0.12 0.44 -0.36 0.44 l-4.56 0 c-0.12 0 -0.24 -0.08 -0.28 -0.24 l-1.56 -5.6 l-5.84 0 l-1.52 5.6 c-0.04 0.16 -0.12 0.24 -0.28 0.24 l-4.6 0 c-0.24 0 -0.4 -0.2 -0.36 -0.44 z M60.88 29.2 l3.32 0 l-1.72 -6.04 z M91.8 17.12 l0 -2 l-14.4 0 l0 2 l6.04 0 l0 21.4 l2.28 0 l0 -21.4 l6.08 0 z M76.24 18.6 c-0.2 0 -0.36 -0.16 -0.36 -0.36 l0 -4.28 c0 -0.2 0.16 -0.36 0.36 -0.36 l16.68 0 c0.2 0 0.36 0.16 0.36 0.36 l0 4.28 c0 0.2 -0.16 0.36 -0.36 0.36 l-5.68 0 l0 21.04 c0 0.2 -0.16 0.36 -0.36 0.36 l-4.6 0 c-0.2 0 -0.36 -0.16 -0.36 -0.36 l0 -21.04 l-5.68 0 z M128.07999999999998 25.84 l0 -5.04 c0 -1.88 -0.52 -3.36 -1.44 -4.28 c-0.96 -0.96 -2.36 -1.4 -4.2 -1.4 l-7.12 0 l0 23.4 l2.24 0 l0 -7 l4.88 0 c1.72 0 3.2 -0.56 4.2 -1.56 c0.92 -0.96 1.44 -2.4 1.44 -4.12 z M124.11999999999998 18.16 c0.6 0.4 1.04 0.96 1.36 1.64 c0.24 0.6 0.36 1.32 0.36 2.2 l0 2.64 c0 0.92 -0.16 1.68 -0.52 2.32 c-0.28 0.64 -0.8 1.2 -1.44 1.56 c-1.16 0.64 -2.56 0.72 -3.64 0.72 l-2.68 0 l0 -11.8 l2.68 0 c1.72 0 2.92 0.12 3.88 0.72 z M122.43999999999998 13.600000000000001 c4.44 0 7.12 2.52 7.12 7.2 l0 5.04 c0 4.28 -2.64 7.16 -7.12 7.16 l-3.36 0 l0 6.64 c0 0.2 -0.16 0.36 -0.36 0.36 l-4.6 0 c-0.16 0 -0.28 -0.16 -0.28 -0.36 l0 -25.68 c0 -0.2 0.12 -0.36 0.28 -0.36 l8.32 0 z M124.31999999999998 24.64 l0 -2.64 c0 -2.76 -1.28 -3.04 -4.08 -3.04 l-1.16 0 l0 8.8 l1.16 0 c2.2 0 4.08 -0.4 4.08 -3.12 z M146.64 38.52 l2.36 0 l-3.28 -7.16 c3.12 -1.44 3.72 -3.56 3.72 -5.52 l0 -5.04 c0 -3.44 -2 -5.68 -5.64 -5.68 l-7.12 0 l0 23.4 l2.24 0 l0 -7 l4.52 0 z M147.2 24.6 c0 2.84 -1.52 4.64 -4.92 4.64 l-3.36 0 l0 -11.84 l3.92 0 c2.88 0 4.36 1.36 4.36 4.6 l0 2.6 z M150.2 29.560000000000002 c-0.56 1.16 -1.36 2.04 -2.48 2.56 l3.36 7.4 c0.12 0.24 -0.04 0.48 -0.28 0.48 l-4.92 0 c-0.16 0 -0.24 -0.08 -0.28 -0.2 l-3.12 -6.8 l-2.04 0 l0 6.64 c0 0.2 -0.16 0.36 -0.36 0.36 l-4.6 0 c-0.16 0 -0.28 -0.16 -0.28 -0.36 l0 -25.68 c0 -0.2 0.12 -0.36 0.28 -0.36 l8.32 0 c4.44 0 7.12 2.52 7.12 7.2 l0 5.04 c0 1.4 -0.24 2.72 -0.72 3.72 z M145.68 24.6 l0 -2.6 c0 -2.8 -1.04 -3.08 -4.08 -3.08 l-1.16 0 l0 8.84 l1.16 0 c2.52 0 4 -0.04 4.08 -3.16 z M174.28 32.04 l0 -10.52 c0 -5.16 -2.48 -6.76 -7.6 -6.76 c-4.84 0 -7.68 1.48 -7.68 6.76 l0 10.52 c0 5.32 2.44 6.88 7.68 6.88 c4.84 0 7.6 -1.4 7.6 -6.88 z M166.88 17.12 c3.24 0 5.12 1.88 5.12 5.72 l0 7.92 c0 3.56 -1.56 5.76 -5.12 5.76 l-0.48 0 c-3.2 0 -5.08 -2 -5.08 -5.76 l0 -7.92 c0 -3.52 1.6 -5.72 5.08 -5.72 l0.48 0 z M166.68 13.239999999999998 c3.44 0 5.84 0.76 7.36 2.4 c1.2 1.32 1.76 3.2 1.76 5.88 l0 10.52 c0 2.76 -0.56 4.68 -1.76 5.96 c-1.56 1.6 -3.92 2.4 -7.36 2.4 c-3.56 0 -5.88 -0.8 -7.4 -2.4 c-1.16 -1.28 -1.8 -3.2 -1.8 -5.96 l0 -10.52 c0 -2.68 0.6 -4.6 1.8 -5.92 c1.52 -1.64 3.92 -2.36 7.4 -2.36 z M170.48000000000002 30.84 l0 -8 c0 -3.52 -1.88 -4.24 -3.6 -4.24 l-0.48 0 c-2.56 0 -3.56 1.64 -3.56 4.24 l0 8 c0 3.52 1.88 4.28 3.56 4.28 l0.48 0 c2.56 0 3.56 -1.72 3.6 -4.28 z M192.20000000000002 38.52 l6.28 -23.4 l-2.16 0 l-5.8 21.04 l-5.52 -21.04 l-2.2 0 l6.24 23.4 l3.16 0 z M190.60000000000002 30.4 l4.52 -16.56 c0.08 -0.12 0.16 -0.24 0.32 -0.24 l4.56 0 c0.24 0 0.4 0.2 0.32 0.44 l-6.92 25.72 c-0.08 0.16 -0.16 0.24 -0.32 0.24 l-4.96 0 c-0.12 0 -0.24 -0.08 -0.28 -0.24 l-6.92 -25.72 c-0.04 -0.24 0.12 -0.44 0.36 -0.44 l4.6 0 c0.16 0 0.24 0.12 0.32 0.24 z M209.60000000000002 38.52 l0 -23.4 l-2.24 0 l0 23.4 l2.24 0 z M206.20000000000005 40 c-0.2 0 -0.32 -0.16 -0.32 -0.36 l0 -25.68 c0 -0.2 0.12 -0.36 0.32 -0.36 l4.56 0 c0.2 0 0.36 0.16 0.36 0.36 l0 25.68 c0 0.2 -0.16 0.36 -0.36 0.36 l-4.56 0 z M235.20000000000002 32.12 l0 -10.6 c0 -4.12 -2.08 -6.4 -6.4 -6.4 l-8.84 0 l0 23.4 l8.84 0 c3.8 0 6.4 -2.4 6.4 -6.4 z M227.36 17.12 c3.56 0 5.6 1.88 5.6 5.6 l0 8.2 c0 3.32 -1.96 5.6 -5.6 5.6 l-5.08 0 l0 -19.4 l5.08 0 z M228.80000000000004 13.600000000000001 c2.72 0 4.76 0.76 6.12 2.24 c1.2 1.32 1.8 3.28 1.8 5.68 l0 10.6 c0 4.84 -2.8 7.88 -7.92 7.88 l-10 0 c-0.2 0 -0.32 -0.16 -0.32 -0.36 l0 -25.68 c0 -0.2 0.12 -0.36 0.32 -0.36 l10 0 z M231.48000000000002 30.92 l0 -8.2 c0 -2.52 -1.32 -4.12 -4.12 -4.12 l-3.6 0 l0 16.4 l3.6 0 c2.4 0 4.12 -1.56 4.12 -4.08 z M260.00000000000006 32.04 l0 -10.52 c0 -5.16 -2.48 -6.76 -7.6 -6.76 c-4.84 0 -7.68 1.48 -7.68 6.76 l0 10.52 c0 5.32 2.44 6.88 7.68 6.88 c4.84 0 7.6 -1.4 7.6 -6.88 z M252.60000000000002 17.12 c3.24 0 5.12 1.88 5.12 5.72 l0 7.92 c0 3.56 -1.56 5.76 -5.12 5.76 l-0.48 0 c-3.2 0 -5.08 -2 -5.08 -5.76 l0 -7.92 c0 -3.52 1.6 -5.72 5.08 -5.72 l0.48 0 z M252.40000000000003 13.239999999999998 c3.44 0 5.84 0.76 7.36 2.4 c1.2 1.32 1.76 3.2 1.76 5.88 l0 10.52 c0 2.76 -0.56 4.68 -1.76 5.96 c-1.56 1.6 -3.92 2.4 -7.36 2.4 c-3.56 0 -5.88 -0.8 -7.4 -2.4 c-1.16 -1.28 -1.8 -3.2 -1.8 -5.96 l0 -10.52 c0 -2.68 0.6 -4.6 1.8 -5.92 c1.52 -1.64 3.92 -2.36 7.4 -2.36 z M256.20000000000005 30.84 l0 -8 c0 -3.52 -1.88 -4.24 -3.6 -4.24 l-0.48 0 c-2.56 0 -3.56 1.64 -3.56 4.24 l0 8 c0 3.52 1.88 4.28 3.56 4.28 l0.48 0 c2.56 0 3.56 -1.72 3.6 -4.28 z M279.96000000000004 38.52 l2.36 0 l-3.28 -7.16 c3.12 -1.44 3.72 -3.56 3.72 -5.52 l0 -5.04 c0 -3.44 -2 -5.68 -5.64 -5.68 l-7.12 0 l0 23.4 l2.24 0 l0 -7 l4.52 0 z M280.52000000000004 24.6 c0 2.84 -1.52 4.64 -4.92 4.64 l-3.36 0 l0 -11.84 l3.92 0 c2.88 0 4.36 1.36 4.36 4.6 l0 2.6 z M283.52000000000004 29.560000000000002 c-0.56 1.16 -1.36 2.04 -2.48 2.56 l3.36 7.4 c0.12 0.24 -0.04 0.48 -0.28 0.48 l-4.92 0 c-0.16 0 -0.24 -0.08 -0.28 -0.2 l-3.12 -6.8 l-2.04 0 l0 6.64 c0 0.2 -0.16 0.36 -0.36 0.36 l-4.6 0 c-0.16 0 -0.28 -0.16 -0.28 -0.36 l0 -25.68 c0 -0.2 0.12 -0.36 0.28 -0.36 l8.32 0 c4.44 0 7.12 2.52 7.12 7.2 l0 5.04 c0 1.4 -0.24 2.72 -0.72 3.72 z M279.00000000000006 24.6 l0 -2.6 c0 -2.8 -1.04 -3.08 -4.08 -3.08 l-1.16 0 l0 8.84 l1.16 0 c2.52 0 4 -0.04 4.08 -3.16 z M295.12000000000006 25.560000000000002 l0 -8.44 l9 0 l0 -2 l-11.32 0 l0 23.4 l11.32 0 l0 -2 l-9 0 l0 -8.92 l7.04 0 l0 -2.04 l-7.04 0 z M291.64000000000004 40 c-0.2 0 -0.32 -0.16 -0.32 -0.36 l0 -25.68 c0 -0.2 0.12 -0.36 0.32 -0.36 l13.6 0 c0.2 0 0.36 0.16 0.36 0.36 l0 4.28 c0 0.2 -0.16 0.36 -0.36 0.36 l-8.64 0 l0 5.44 l6.72 0 c0.2 0 0.32 0.16 0.32 0.36 l0 4.36 c0 0.2 -0.12 0.36 -0.32 0.36 l-6.72 0 l0 5.88 l8.64 0 c0.2 0 0.36 0.16 0.36 0.36 l0 4.28 c0 0.2 -0.16 0.36 -0.36 0.36 l-13.6 0 z"></path></g><g id="SvgjsG1126" featureKey="sloganFeature-0" transform="matrix(0.837176401081025,0,0,0.837176401081025,99.99996676686507,126.93134054282783)" fill="#ffffff"><path d="M7.86 9.8 c0 0.66666 -0.10662 1.2867 -0.31996 1.86 s-0.51334 1.07 -0.9 1.49 s-0.86 0.75 -1.42 0.99 s-1.18 0.36 -1.86 0.36 l-1.86 0 l0 5.5 l-1.5 0 l0 -15 l3.64 0 c0.73334 0 1.3633 0.12334 1.89 0.37 s0.96332 0.58332 1.31 1.01 s0.60332 0.93332 0.76998 1.52 s0.25 1.22 0.25 1.9 z M6.34 9.76 c0 -1.08 -0.22334 -1.91 -0.67 -2.49 s-1.25 -0.87 -2.41 -0.87 l-1.76 0 l0 6.64 l1.56 0 c1.08 0 1.8967 -0.28 2.45 -0.84 s0.83 -1.3733 0.83 -2.44 z M21.360500000000002 20 l-1.72 -0.000019531 l-3.14 -6.06 l-2.6 0 l0 6.06 l-1.34 0 l0 -15 l3.44 0 c1.3733 0 2.46 0.39334 3.26 1.18 s1.2 1.8667 1.2 3.24 c0 0.42666 -0.05666 0.86 -0.17 1.3 s-0.27668 0.85334 -0.49002 1.24 s-0.47668 0.73666 -0.79002 1.05 s-0.67 0.55668 -1.07 0.73002 z M19.0405 9.32 c0 -0.46666 -0.08 -0.88664 -0.24 -1.26 s-0.38 -0.69 -0.66 -0.95 s-0.61334 -0.46 -1 -0.6 s-0.80666 -0.21 -1.26 -0.21 l-1.98 0 l0 6.26 l2.1 0 c1.0667 0 1.84 -0.28666 2.32 -0.86 s0.72 -1.3667 0.72 -2.38 z M33.081 16.12 c0 1.4133 -0.31666 2.4434 -0.95 3.09 s-1.6633 0.97 -3.09 0.97 c-1.3067 0 -2.2634 -0.36 -2.87 -1.08 s-0.91 -1.7133 -0.91 -2.98 l0 -7.2 c0 -1.3733 0.32334 -2.3934 0.97 -3.06 s1.6633 -1 3.05 -1 c1.32 0 2.2834 0.35 2.89 1.05 s0.91 1.69 0.91 2.97 l0 7.24 z M31.681000000000004 16.08 l-0.000019531 -7.22 c0 -0.76 -0.2 -1.3933 -0.6 -1.9 s-1.0067 -0.76 -1.82 -0.76 c-0.97334 0 -1.65 0.25334 -2.03 0.76 s-0.57 1.22 -0.57 2.14 l0 6.9 c0 0.38666 0.04334 0.75 0.13 1.09 s0.22666 0.63666 0.42 0.89 s0.44 0.45334 0.74 0.6 s0.66334 0.22 1.09 0.22 c0.93334 0 1.6067 -0.22666 2.02 -0.68 s0.62 -1.1333 0.62 -2.04 z M46.5015 5 l-4.08 15 l-1.14 0 l-4.06 -15 l1.42 0 l3.2 12.32 l3.28 -12.32 l1.38 0 z M58.102000000000004 20 l-7.5 0 l0 -15 l7.36 0 l0 1.52 l-5.98 0 l0 5.16 l5.94 0 l0 1.3 l-5.94 0 l0 5.5 l6.12 0 l0 1.52 z M70.8625 20 l-1.56 0 l-5.2 -11.8 l0 11.8 l-1.44 0 l0 -15 l1.44 0 l5.22 11.3 l0.12 -11.3 l1.42 0 l0 15 z M84.70299999999999 20 l-1.4 0 l-1.06 -4.3 l-4.36 0 l-1.06 4.3 l-1.36 0 l4.06 -15 l1.14 0 z M81.90299999999999 14.36 l-1.78 -7.42 l-1.9 7.42 l3.68 0 z M97.38349999999998 20 l-1.56 0 l-5.2 -11.8 l0 11.8 l-1.44 0 l0 -15 l1.44 0 l5.22 11.3 l0.12 -11.3 l1.42 0 l0 15 z M109.22399999999998 14.8 c-0.01334 0.74666 -0.040038 1.4466 -0.080038 2.1 s-0.17666 1.2233 -0.41 1.71 s-0.60334 0.87 -1.11 1.15 s-1.2267 0.42 -2.16 0.42 c-0.65334 0 -1.2067 -0.09666 -1.66 -0.29 s-0.82 -0.46668 -1.1 -0.82002 s-0.48334 -0.78 -0.61 -1.28 s-0.19 -1.0567 -0.19 -1.67 l0 -7.2 c0 -0.65334 0.06666 -1.2333 0.2 -1.74 s0.35 -0.93332 0.65 -1.28 s0.69 -0.60666 1.17 -0.78 s1.0667 -0.26 1.76 -0.26 c0.84 0 1.4933 0.14334 1.96 0.43 s0.81666 0.67 1.05 1.15 s0.37668 1.03 0.43002 1.65 s0.08668 1.2633 0.10002 1.93 l-1.32 0 c0 -0.44 -0.0033398 -0.89334 -0.01 -1.36 s-0.07332 -0.89 -0.19998 -1.27 s-0.34666 -0.69334 -0.66 -0.94 s-0.77668 -0.37 -1.39 -0.37 c-0.46666 0 -0.85666 0.06666 -1.17 0.2 s-0.56 0.32668 -0.74 0.58002 s-0.30666 0.55334 -0.38 0.9 s-0.11 0.73332 -0.11 1.16 l0.04 7.3 c0 0.4 0.03 0.76334 0.09 1.09 s0.17 0.60666 0.33 0.84 s0.38334 0.41334 0.67 0.54 s0.65 0.19 1.09 0.19 c0.68 0 1.1867 -0.11666 1.52 -0.35 s0.56668 -0.54334 0.70002 -0.93 s0.20334 -0.82332 0.21 -1.31 s0.01 -0.98332 0.01 -1.49 l1.32 0 z M121.54449999999999 20 l-7.5 0 l0 -15 l7.36 0 l0 1.52 l-5.98 0 l0 5.16 l5.94 0 l0 1.3 l-5.94 0 l0 5.5 l6.12 0 l0 1.52 z M140.78549999999998 9.8 c0 0.66666 -0.10662 1.2867 -0.31996 1.86 s-0.51334 1.07 -0.9 1.49 s-0.86 0.75 -1.42 0.99 s-1.18 0.36 -1.86 0.36 l-1.86 0 l0 5.5 l-1.5 0 l0 -15 l3.64 0 c0.73334 0 1.3633 0.12334 1.89 0.37 s0.96332 0.58332 1.31 1.01 s0.60332 0.93332 0.76998 1.52 s0.25 1.22 0.25 1.9 z M139.26549999999997 9.76 c0 -1.08 -0.22334 -1.91 -0.67 -2.49 s-1.25 -0.87 -2.41 -0.87 l-1.76 0 l0 6.64 l1.56 0 c1.08 0 1.8967 -0.28 2.45 -0.84 s0.83 -1.3733 0.83 -2.44 z M154.28599999999997 20 l-1.72 -0.000019531 l-3.14 -6.06 l-2.6 0 l0 6.06 l-1.34 0 l0 -15 l3.44 0 c1.3733 0 2.46 0.39334 3.26 1.18 s1.2 1.8667 1.2 3.24 c0 0.42666 -0.05666 0.86 -0.17 1.3 s-0.27668 0.85334 -0.49002 1.24 s-0.47668 0.73666 -0.79002 1.05 s-0.67 0.55668 -1.07 0.73002 z M151.96599999999995 9.32 c0 -0.46666 -0.08 -0.88664 -0.24 -1.26 s-0.38 -0.69 -0.66 -0.95 s-0.61334 -0.46 -1 -0.6 s-0.80666 -0.21 -1.26 -0.21 l-1.98 0 l0 6.26 l2.1 0 c1.0667 0 1.84 -0.28666 2.32 -0.86 s0.72 -1.3667 0.72 -2.38 z M166.00649999999996 16.12 c0 1.4133 -0.31666 2.4434 -0.95 3.09 s-1.6633 0.97 -3.09 0.97 c-1.3067 0 -2.2634 -0.36 -2.87 -1.08 s-0.91 -1.7133 -0.91 -2.98 l0 -7.2 c0 -1.3733 0.32334 -2.3934 0.97 -3.06 s1.6633 -1 3.05 -1 c1.32 0 2.2834 0.35 2.89 1.05 s0.91 1.69 0.91 2.97 l0 7.24 z M164.60649999999995 16.08 l-0.000019531 -7.22 c0 -0.76 -0.2 -1.3933 -0.6 -1.9 s-1.0067 -0.76 -1.82 -0.76 c-0.97334 0 -1.65 0.25334 -2.03 0.76 s-0.57 1.22 -0.57 2.14 l0 6.9 c0 0.38666 0.04334 0.75 0.13 1.09 s0.22666 0.63666 0.42 0.89 s0.44 0.45334 0.74 0.6 s0.66334 0.22 1.09 0.22 c0.93334 0 1.6067 -0.22666 2.02 -0.68 s0.62 -1.1333 0.62 -2.04 z M178.96699999999998 16.12 c0 1.3333 -0.32336 2.3434 -0.97002 3.03 s-1.6433 1.03 -2.99 1.03 c-1.28 0 -2.2434 -0.36666 -2.89 -1.1 s-0.97 -1.72 -0.97 -2.96 l0 -11.12 l1.42 0 l0 11.06 c0 0.37334 0.05 0.72334 0.15 1.05 s0.25 0.61332 0.45 0.85998 s0.45 0.44 0.75 0.58 s0.65 0.21 1.05 0.21 c0.97334 0 1.65 -0.27 2.03 -0.81 s0.57 -1.2633 0.57 -2.17 l0 -10.78 l1.4 0 l0 11.12 z M191.1075 12.18 c0 0.49334 0.0033984 1.03 0.010059 1.61 s-0.01668 1.16 -0.07002 1.74 s-0.15 1.14 -0.29 1.68 s-0.35666 1.0167 -0.65 1.43 s-0.67668 0.74334 -1.15 0.99 s-1.0633 0.37 -1.77 0.37 l-3.64 0 l0 -15 l3.5 0 c0.73334 0 1.34 0.10334 1.82 0.31 s0.87334 0.48666 1.18 0.84 s0.53332 0.76668 0.67998 1.24 s0.24666 0.97668 0.3 1.51 s0.08 1.08 0.08 1.64 l0 1.64 z M189.7475 12.32 l0.000019531 -0.85996 c0 -0.37334 -0.01 -0.76 -0.03 -1.16 s-0.04666 -0.78 -0.08 -1.14 s-0.07668 -0.62666 -0.13002 -0.8 c-0.22666 -0.66666 -0.54 -1.16 -0.94 -1.48 s-0.96 -0.48 -1.68 -0.48 l-2 0 l0 12.16 l2.26 0 c0.29334 0 0.56 -0.05334 0.8 -0.16 s0.46 -0.25 0.66 -0.43 s0.37 -0.38666 0.51 -0.62 s0.25666 -0.47668 0.35 -0.73002 c0.06666 -0.17334 0.11666 -0.45668 0.15 -0.85002 s0.06 -0.81 0.08 -1.25 s0.03334 -0.86334 0.04 -1.27 s0.01 -0.71666 0.01 -0.93 z"></path></g>
			</g>
		</svg>
	